<svg width="1440" height="1024" viewBox="0 0 1440 1024" fill="none" xmlns="http://www.w3.org/2000/svg">
<rect width="1440" height="1024" fill="#1E1E1E"/>
<g clip-path="url(#clip0_0_1)">
<rect width="1440" height="1024" fill="#232946"/>
<g clip-path="url(#clip1_0_1)">
<path d="M318.66 1461.49L908.824 195.881L262.435 -105.535L-327.729 1160.08L318.66 1461.49Z" fill="#232946"/>
<path d="M-195.27 876.018L-175.405 873.639C-155.367 871.17 -115.638 866.413 -73.9838 857.246C-32.3295 848.079 11.1188 834.784 49.6255 832.367C88.0667 830.091 121.501 838.833 146.059 866.891C170.683 894.809 186.15 942.082 213.069 965.078C239.922 988.214 277.947 987.113 316.847 983.853C355.747 980.592 395.523 975.172 424.063 994.13C452.536 1013.23 469.839 1056.56 478.533 1078.42L487.185 1100.09L318.66 1461.49L303.254 1454.31C287.741 1447.08 256.93 1432.71 226.226 1418.39C195.523 1404.07 164.927 1389.81 134.224 1375.49C103.52 1361.17 72.7089 1346.8 41.79 1332.39C10.8711 1317.97 -19.9401 1303.6 -50.8591 1289.18C-81.778 1274.77 -112.589 1260.4 -143.293 1246.08C-173.996 1231.76 -204.592 1217.5 -235.295 1203.18C-265.999 1188.86 -296.81 1174.5 -312.323 1167.26L-327.729 1160.08L-195.27 876.018Z" fill="#FFFFFE"/>
</g>
</g>
<defs>
<clipPath id="clip0_0_1">
<rect width="1440" height="1024" fill="white"/>
</clipPath>
<clipPath id="clip1_0_1">
<rect width="1396.45" height="713.211" fill="white" transform="translate(908.824 195.881) rotate(115)"/>
</clipPath>
</defs>
</svg>
