<svg id="visual" viewBox="0 0 900 600" width="900" height="600" xmlns="http://www.w3.org/2000/svg" xmlns:xlink="http://www.w3.org/1999/xlink" version="1.1"><rect x="0" y="0" width="900" height="600" fill="#232946"></rect><defs><linearGradient id="grad1_0" x1="33.3%" y1="0%" x2="100%" y2="100%"><stop offset="20%" stop-color="#232946" stop-opacity="1"></stop><stop offset="80%" stop-color="#232946" stop-opacity="1"></stop></linearGradient></defs><defs><linearGradient id="grad2_0" x1="0%" y1="0%" x2="66.7%" y2="100%"><stop offset="20%" stop-color="#232946" stop-opacity="1"></stop><stop offset="80%" stop-color="#232946" stop-opacity="1"></stop></linearGradient></defs><g transform="translate(900, 0)"><path d="M0 108.2C-12.6 101.2 -25.2 94.1 -36.4 87.8C-47.5 81.4 -57.2 75.7 -68.6 68.6C-80 61.5 -93.1 53.1 -99.9 41.4C-106.8 29.7 -107.5 14.9 -108.2 0L0 0Z" fill="#fffffe"></path></g><g transform="translate(0, 600)"><path d="M0 -108.2C14.2 -106.8 28.4 -105.4 41.4 -99.9C54.4 -94.4 66.2 -84.8 73.5 -73.5C80.9 -62.2 83.7 -49.3 88.7 -36.7C93.7 -24.2 100.9 -12.1 108.2 0L0 0Z" fill="#fffffe"></path></g></svg>