<svg width="1440" height="1024" viewBox="0 0 1440 1024" fill="none" xmlns="http://www.w3.org/2000/svg">
<rect width="1440" height="1024" fill="#1E1E1E"/>
<g clip-path="url(#clip0_0_1)">
<rect width="1440" height="1024" fill="#232946"/>
<g clip-path="url(#clip1_0_1)">
<path d="M1765.02 872.805L1063.58 -318L155 217.195L856.438 1408L1765.02 872.805Z" fill="#232946"/>
<path d="M699.004 1140.73L715.359 1118.98C731.787 1097 764.497 1053.5 794.639 1005.98C824.781 958.463 852.511 907.197 886.394 866.03C920.355 824.996 960.546 794.192 1011.57 781.426C1062.51 768.528 1124.06 773.978 1172.27 756.449C1220.56 739.052 1255.3 698.987 1288.71 657.026C1322.13 615.065 1354.22 571.209 1399.95 550.154C1445.76 529.231 1505.13 530.976 1535.04 531.892L1564.72 532.764L1765.02 872.805L1743.36 885.561C1721.56 898.406 1678.25 923.916 1635.09 949.338C1591.93 974.76 1548.93 1000.09 1505.77 1025.51C1462.61 1050.94 1419.3 1076.45 1375.84 1102.05C1332.38 1127.65 1289.07 1153.16 1245.61 1178.76C1202.15 1204.36 1158.84 1229.87 1115.69 1255.29C1072.53 1280.71 1029.52 1306.05 986.365 1331.47C943.207 1356.89 899.898 1382.4 878.092 1395.24L856.438 1408L699.004 1140.73Z" fill="#FFFFFE"/>
</g>
</g>
<defs>
<clipPath id="clip0_0_1">
<rect width="1440" height="1024" fill="white"/>
</clipPath>
<clipPath id="clip1_0_1">
<rect width="1382.04" height="1054.49" fill="white" transform="translate(1063.58 -318) rotate(59.5)"/>
</clipPath>
</defs>
</svg>
