<svg id="visual" viewBox="0 0 900 600" width="900" height="600" xmlns="http://www.w3.org/2000/svg" xmlns:xlink="http://www.w3.org/1999/xlink" version="1.1"><path d="M0 412L21.5 425.3C43 438.7 86 465.3 128.8 478.2C171.7 491 214.3 490 257.2 482C300 474 343 459 385.8 456.8C428.7 454.7 471.3 465.3 514.2 463C557 460.7 600 445.3 642.8 436.5C685.7 427.7 728.3 425.3 771.2 435.2C814 445 857 467 878.5 478L900 489L900 601L878.5 601C857 601 814 601 771.2 601C728.3 601 685.7 601 642.8 601C600 601 557 601 514.2 601C471.3 601 428.7 601 385.8 601C343 601 300 601 257.2 601C214.3 601 171.7 601 128.8 601C86 601 43 601 21.5 601L0 601Z" fill="#d4d8f0" stroke-linecap="round" stroke-linejoin="miter"></path></svg>