<svg id="visual" viewBox="0 0 900 600" width="900" height="600" xmlns="http://www.w3.org/2000/svg" xmlns:xlink="http://www.w3.org/1999/xlink" version="1.1"><rect x="0" y="0" width="900" height="600" fill="#232946"></rect><path d="M698 600L691.2 585.7C684.3 571.3 670.7 542.7 654 514.2C637.3 485.7 617.7 457.3 605.8 428.8C594 400.3 590 371.7 599.7 343C609.3 314.3 632.7 285.7 638.8 257C645 228.3 634 199.7 621.5 171.2C609 142.7 595 114.3 598.3 85.8C601.7 57.3 622.3 28.7 632.7 14.3L643 0L900 0L900 14.3C900 28.7 900 57.3 900 85.8C900 114.3 900 142.7 900 171.2C900 199.7 900 228.3 900 257C900 285.7 900 314.3 900 343C900 371.7 900 400.3 900 428.8C900 457.3 900 485.7 900 514.2C900 542.7 900 571.3 900 585.7L900 600Z" fill="#fffffe" stroke-linecap="round" stroke-linejoin="miter"></path></svg>