<svg id="visual" viewBox="0 0 960 540" width="960" height="540" xmlns="http://www.w3.org/2000/svg" xmlns:xlink="http://www.w3.org/1999/xlink" version="1.1"><rect x="0" y="0" width="960" height="540" fill="#232946"></rect><path d="M0 396L22.8 394.2C45.7 392.3 91.3 388.7 137 390.8C182.7 393 228.3 401 274 412.7C319.7 424.3 365.3 439.7 411.2 449.2C457 458.7 503 462.3 548.8 461.5C594.7 460.7 640.3 455.3 686 456.3C731.7 457.3 777.3 464.7 823 464C868.7 463.3 914.3 454.7 937.2 450.3L960 446L960 541L937.2 541C914.3 541 868.7 541 823 541C777.3 541 731.7 541 686 541C640.3 541 594.7 541 548.8 541C503 541 457 541 411.2 541C365.3 541 319.7 541 274 541C228.3 541 182.7 541 137 541C91.3 541 45.7 541 22.8 541L0 541Z" fill="#fffffe" stroke-linecap="round" stroke-linejoin="miter"></path></svg>